<svg id="svg7" xmlns="http://www.w3.org/2000/svg" height="64" width="64" version="1.1" viewBox="0 0 64 64">
 <polygon id="polygon2" points="313 175 305 412 345 414 354 177" transform="matrix(.125 0 0 .125 .04 0)"/>
 <rect id="rect4" style="stroke-width:.125" height="29.6" width="5.01" y="22" x="29.5"/>
 <polygon id="polygon6" points="198 175 158 177 167 414 207 412" transform="matrix(.125 0 0 .125 .04 0)"/>
 <path id="path8" style="stroke-width:.125" d="m2 10v5h5l4.5 46.8c.1 1.2 1.3 2.2 2.5 2.2h36c1.3 0 2.4-1 2.5-2.2l4.5-46.8h5v-5zm14 49-4-44h40l-4 44z"/>
 <path id="path16" style="stroke-width:.125" d="m24 0c-2.3 0-4 1.69-4 4v6h5v-5h14v5h5v-6c0-2.31-1.8-4-4-4z"/>
</svg>
